<svg xmlns="http://www.w3.org/2000/svg" version="1.1" xlink="http://www.w3.org/1999/xlink" xmlns:svgjs="http://svgjs.com/svgjs" width="320" height="100%" preserveAspectRatio="xMidYMid meet" viewBox="4.76837158203125e-7 0 300 61.480350494384766" overflow="visible"><defs id="SvgjsDefs5946"><linearGradient id="SvgjsLinearGradientY5Nbli2sx" gradientUnits="userSpaceOnUse" x1="9.45648344016618" y1="89.12554967950147" x2="90.54351655983383" y2="8.038516559833818"><stop id="SvgjsStop5949" stop-color="#d0021b" offset="0.05"></stop><stop id="SvgjsStop5950" stop-color="#832f71" offset="0.95"></stop></linearGradient></defs><g id="SvgjsG5947" transform="scale(0.6493506493506493)" opacity="1"><g id="SvgjsG5951" class="LFpc0iqvZ" transform="translate(-6.559124687664548, -16.39125259447372) scale(1.311824937532911)" light-content="false" non-strokable="false" fill="url(#SvgjsLinearGradientY5Nbli2sx)"><path d="M91 24.094V18c0-3.087-2.384-5.505-5.427-5.505-.354 0-.713.033-1.067.099l-32.099 5.913c-1.204.221-3.61.222-4.814 0l-32.099-5.913a5.934 5.934 0 0 0-1.067-.099C11.383 12.495 9 14.913 9 18v6.094c-2.337.964-4 3.302-4 5.906v49c0 1.535.581 2.964 1.635 4.023 1.214 1.221 2.898 1.822 4.699 1.601l36.042-4.291c1.337-.158 3.911-.158 5.249 0l36.042 4.291c.238.029.474.042.705.042C92.527 84.666 95 82.178 95 79V30c0-2.605-1.663-4.942-4-5.906zM11 78.622v-6.987c.926.932 2.097 1.617 3.407 1.859l15.573 2.868L11 78.622zm36-5.226l-31.505-5.803C15.296 67.557 15 67.202 15 67V18.603l31.506 5.804c.153.028.326.05.494.074v48.915zm6-48.915c.168-.024.341-.046.494-.074L85 18.601V67c0 .202-.296.557-.493.594L53 73.396V24.481zm36 54.141l-18.98-2.26 15.575-2.868c1.31-.242 2.479-.928 3.405-1.859v6.987zM40.521 32.045L22.52 28.879a2.999 2.999 0 1 0-1.039 5.909l18.001 3.167a3 3 0 0 0 1.039-5.91zm0 12L22.52 40.879a2.999 2.999 0 1 0-1.039 5.909l18.001 3.166a2.995 2.995 0 0 0 3.473-2.435 3 3 0 0 0-2.434-3.474zm-6.445 10.927l-11.541-2.09a3 3 0 1 0-1.07 5.904l11.541 2.09a3.002 3.002 0 0 0 3.487-2.418 3 3 0 0 0-2.417-3.486zM77.48 27.879l-18 3.167A2.999 2.999 0 0 0 57 34v13a3.003 3.003 0 0 0 3.52 2.955l18-3.166A2.999 2.999 0 0 0 81 43.834v-13c0-.887-.393-1.728-1.071-2.298a3.01 3.01 0 0 0-2.449-.657zM75 41.315l-12 2.111v-6.908l12-2.111v6.908zm-3.533 11.567l-11.541 2.09a3 3 0 1 0 1.068 5.904l11.541-2.09a3 3 0 1 0-1.068-5.904z"></path></g><g id="SvgjsG5952" class="text" transform="translate(305.76742523988617, 41.63169914819594) scale(1)" light-content="false" fill="#d0021b"><path d="M-138.17 -34.54L-153.1 -34.54L-153.36 -31.88L-149.01 -31.88L-152.03 -2.66L-156.39 -2.66L-156.71 0L-141.67 0C-135.9 0 -131.3 -1.83 -127.86 -5.5C-124.42 -9.17 -122.71 -13.71 -122.71 -19.13C-122.71 -23.63 -124.03 -27.32 -126.66 -30.21C-129.3 -33.09 -133.14 -34.54 -138.17 -34.54ZM-141.51 -2.66L-149.17 -2.66L-146.14 -31.88L-138.49 -31.88C-134.34 -31.88 -131.19 -30.67 -129.03 -28.27C-126.87 -25.86 -125.79 -22.74 -125.79 -18.91C-125.79 -14.24 -127.2 -10.36 -130.01 -7.28C-132.83 -4.2 -136.66 -2.66 -141.51 -2.66Z M-99.75 -35.07C-103.26 -35.07 -106.42 -34.18 -109.24 -32.41C-112.05 -30.64 -114.28 -28.27 -115.91 -25.29C-117.53 -22.32 -118.35 -19.04 -118.35 -15.46C-118.35 -11.03 -117 -7.26 -114.31 -4.14C-111.62 -1.03 -107.95 0.53 -103.31 0.53C-99.74 0.53 -96.53 -0.36 -93.7 -2.15C-90.86 -3.94 -88.64 -6.31 -87.03 -9.27C-85.42 -12.23 -84.61 -15.5 -84.61 -19.07C-84.61 -23.5 -85.98 -27.27 -88.7 -30.39C-91.43 -33.51 -95.11 -35.07 -99.75 -35.07ZM-102.89 -2.23C-107.03 -2.23 -110.12 -3.56 -112.16 -6.22C-114.2 -8.87 -115.21 -12.04 -115.21 -15.73C-115.21 -20.23 -113.81 -24.11 -110.99 -27.39C-108.18 -30.67 -104.54 -32.3 -100.07 -32.3C-96.11 -32.3 -93.06 -31.02 -90.93 -28.45C-88.81 -25.88 -87.75 -22.69 -87.75 -18.86C-87.75 -15.92 -88.37 -13.19 -89.63 -10.65C-90.89 -8.12 -92.65 -6.08 -94.92 -4.54C-97.19 -3 -99.84 -2.23 -102.89 -2.23Z M-82.01 -2.71L-82.27 0L-69.84 0L-69.58 -2.71L-75.21 -2.71L-72.44 -28.64L-72.28 -28.64L-55.28 0L-53.26 0L-49.97 -31.83L-45.56 -31.83L-45.29 -34.54L-57.62 -34.54L-57.89 -31.83L-52.84 -31.83L-55.5 -6.22L-55.65 -6.22L-72.5 -34.54L-79.14 -34.54L-79.4 -31.83L-74.94 -31.83L-77.97 -2.71Z M-21.17 -10.15C-21.17 -13.51 -22.15 -15.73 -24.09 -16.79C-26.04 -17.85 -28.38 -18.74 -31.11 -19.45C-33.13 -19.94 -34.84 -20.55 -36.24 -21.28C-37.63 -22.01 -38.33 -23.43 -38.33 -25.56C-38.33 -27.68 -37.57 -29.35 -36.05 -30.55C-34.53 -31.75 -32.44 -32.36 -29.78 -32.36C-28.93 -32.36 -27.93 -32.27 -26.78 -32.09C-25.63 -31.91 -24.52 -31.54 -23.46 -30.98L-23.46 -25.5L-20.96 -25.77L-20.59 -32.46C-21.51 -33.21 -22.89 -33.83 -24.73 -34.32C-26.57 -34.82 -28.36 -35.07 -30.1 -35.07C-32.9 -35.07 -35.48 -34.29 -37.86 -32.73C-40.23 -31.17 -41.42 -28.73 -41.42 -25.4C-41.42 -22.39 -40.46 -20.32 -38.55 -19.21C-36.63 -18.09 -34.61 -17.27 -32.49 -16.74C-30.47 -16.24 -28.61 -15.63 -26.91 -14.9C-25.21 -14.18 -24.36 -12.45 -24.36 -9.72C-24.36 -7.1 -25.23 -5.19 -26.96 -3.98C-28.7 -2.78 -30.93 -2.18 -33.66 -2.18C-34.9 -2.18 -36.22 -2.3 -37.62 -2.55C-39.02 -2.8 -40.21 -3.21 -41.2 -3.77L-40.62 -8.13L-43.01 -8.39L-44.23 -2.07C-43.24 -1.33 -41.76 -0.71 -39.8 -0.21C-37.83 0.28 -35.78 0.53 -33.66 0.53C-29.66 0.53 -26.57 -0.41 -24.41 -2.28C-22.25 -4.16 -21.17 -6.78 -21.17 -10.15Z M10.39 -2.39L11.93 -8.61L9.38 -8.93L7.84 -3.83C5.71 -2.76 3.23 -2.23 0.4 -2.23C-3.82 -2.23 -7.01 -3.38 -9.19 -5.69C-11.37 -7.99 -12.46 -11.28 -12.46 -15.57C-12.46 -20.63 -11.04 -24.69 -8.21 -27.73C-5.38 -30.78 -1.73 -32.3 2.74 -32.3C4.51 -32.3 6.04 -32.06 7.33 -31.59C8.62 -31.11 9.8 -30.48 10.87 -29.7L11.34 -24.49L13.95 -24.81L13.68 -31.03C12.48 -32.23 10.95 -33.21 9.09 -33.95C7.23 -34.69 5.11 -35.07 2.74 -35.07C-2.61 -35.07 -6.99 -33.2 -10.39 -29.46C-13.79 -25.72 -15.49 -21.04 -15.49 -15.41C-15.49 -10.66 -14.18 -6.82 -11.56 -3.88C-8.93 -0.94 -5.16 0.53 -0.24 0.53C1.57 0.53 3.43 0.3 5.34 -0.16C7.25 -0.62 8.93 -1.36 10.39 -2.39Z M16.6 -2.71L16.34 0L28.03 0L28.29 -2.71L23.88 -2.71L25.32 -16.31L45.19 -16.31L43.75 -2.71L39.4 -2.71L39.13 0L50.82 0L51.09 -2.71L46.68 -2.71L49.7 -31.83L54.11 -31.83L54.43 -34.54L42.74 -34.54L42.43 -31.83L46.78 -31.83L45.45 -18.91L25.58 -18.91L26.91 -31.83L31.32 -31.83L31.64 -34.54L19.95 -34.54L19.63 -31.83L23.99 -31.83L20.96 -2.71Z M74.94 -35.07C71.43 -35.07 68.27 -34.18 65.46 -32.41C62.64 -30.64 60.42 -28.27 58.79 -25.29C57.16 -22.32 56.35 -19.04 56.35 -15.46C56.35 -11.03 57.69 -7.26 60.38 -4.14C63.08 -1.03 66.74 0.53 71.38 0.53C74.96 0.53 78.16 -0.36 81 -2.15C83.83 -3.94 86.05 -6.31 87.67 -9.27C89.28 -12.23 90.08 -15.5 90.08 -19.07C90.08 -23.5 88.72 -27.27 85.99 -30.39C83.27 -33.51 79.58 -35.07 74.94 -35.07ZM71.81 -2.23C67.66 -2.23 64.57 -3.56 62.54 -6.22C60.5 -8.87 59.48 -12.04 59.48 -15.73C59.48 -20.23 60.89 -24.11 63.7 -27.39C66.52 -30.67 70.16 -32.3 74.62 -32.3C78.59 -32.3 81.64 -31.02 83.76 -28.45C85.89 -25.88 86.95 -22.69 86.95 -18.86C86.95 -15.92 86.32 -13.19 85.06 -10.65C83.81 -8.12 82.04 -6.08 79.78 -4.54C77.51 -3 74.85 -2.23 71.81 -2.23Z M113.04 -35.07C109.53 -35.07 106.37 -34.18 103.55 -32.41C100.74 -30.64 98.51 -28.27 96.88 -25.29C95.26 -22.32 94.44 -19.04 94.44 -15.46C94.44 -11.03 95.79 -7.26 98.48 -4.14C101.17 -1.03 104.84 0.53 109.48 0.53C113.05 0.53 116.26 -0.36 119.09 -2.15C121.93 -3.94 124.15 -6.31 125.76 -9.27C127.37 -12.23 128.18 -15.5 128.18 -19.07C128.18 -23.5 126.82 -27.27 124.09 -30.39C121.36 -33.51 117.68 -35.07 113.04 -35.07ZM109.9 -2.23C105.76 -2.23 102.67 -3.56 100.63 -6.22C98.59 -8.87 97.58 -12.04 97.58 -15.73C97.58 -20.23 98.98 -24.11 101.8 -27.39C104.62 -30.67 108.25 -32.3 112.72 -32.3C116.68 -32.3 119.73 -31.02 121.86 -28.45C123.98 -25.88 125.04 -22.69 125.04 -18.86C125.04 -15.92 124.42 -13.19 123.16 -10.65C121.9 -8.12 120.14 -6.08 117.87 -4.54C115.6 -3 112.95 -2.23 109.9 -2.23Z M154.11 0L156.23 -10.73L153.58 -10.95L151.66 -2.71L137.74 -2.71L140.82 -31.83L146.72 -31.83L146.99 -34.54L133.76 -34.54L133.49 -31.83L137.9 -31.83L134.82 -2.71L130.41 -2.71L130.14 0Z"></path></g><g id="SvgjsG5953" class="text" transform="translate(252.42742523988616, 82.72652859029894) scale(1)" light-content="false" fill="#d0021b"><path d="M-101.22 -10.62C-100.18 -9.75 -98.66 -9.02 -96.66 -8.44C-95.46 -8.1 -94.54 -7.76 -93.9 -7.43C-93.26 -7.09 -92.81 -6.72 -92.56 -6.31C-92.3 -5.9 -92.18 -5.39 -92.18 -4.77C-92.18 -3.84 -92.53 -3.1 -93.24 -2.57C-93.95 -2.03 -94.95 -1.76 -96.24 -1.76C-97.08 -1.76 -97.85 -1.9 -98.55 -2.17C-99.25 -2.43 -99.8 -2.85 -100.22 -3.4C-100.64 -3.95 -100.85 -4.64 -100.85 -5.47L-103.37 -5.47C-103.37 -4.27 -103.03 -3.24 -102.34 -2.37C-101.66 -1.51 -100.77 -0.85 -99.68 -0.41C-98.59 0.04 -97.44 0.26 -96.24 0.26C-94.91 0.26 -93.75 0.05 -92.76 -0.36C-91.76 -0.78 -91 -1.37 -90.46 -2.13C-89.92 -2.9 -89.65 -3.79 -89.65 -4.8C-89.65 -5.78 -89.86 -6.62 -90.3 -7.34C-90.74 -8.05 -91.41 -8.67 -92.31 -9.2C-93.22 -9.72 -94.39 -10.19 -95.85 -10.6C-96.89 -10.89 -97.74 -11.2 -98.38 -11.53C-99.02 -11.86 -99.49 -12.23 -99.79 -12.63C-100.09 -13.04 -100.24 -13.51 -100.24 -14.05C-100.24 -14.96 -99.91 -15.7 -99.26 -16.27C-98.6 -16.83 -97.64 -17.11 -96.37 -17.11C-95 -17.11 -93.97 -16.77 -93.26 -16.1C-92.56 -15.43 -92.21 -14.55 -92.21 -13.44L-89.68 -13.44C-89.68 -14.44 -89.95 -15.38 -90.48 -16.25C-91.01 -17.13 -91.78 -17.83 -92.79 -18.35C-93.8 -18.88 -94.99 -19.15 -96.37 -19.15C-97.63 -19.15 -98.75 -18.92 -99.72 -18.48C-100.69 -18.03 -101.44 -17.42 -101.98 -16.64C-102.51 -15.86 -102.77 -14.99 -102.77 -14.01C-102.77 -12.62 -102.25 -11.49 -101.22 -10.62Z M-75.52 -6.36L-75.52 -7.43C-75.52 -8.78 -75.73 -9.97 -76.14 -11C-76.56 -12.03 -77.2 -12.84 -78.06 -13.42C-78.92 -14 -80 -14.29 -81.31 -14.29C-82.38 -14.29 -83.38 -14 -84.32 -13.43C-85.26 -12.85 -86.01 -12.01 -86.58 -10.92C-87.16 -9.82 -87.44 -8.54 -87.44 -7.08L-87.44 -6.52C-87.44 -5.22 -87.17 -4.05 -86.64 -3.02C-86.11 -1.99 -85.36 -1.19 -84.38 -0.61C-83.4 -0.03 -82.27 0.26 -80.99 0.26C-79.71 0.26 -78.64 0.01 -77.78 -0.5C-76.91 -1.01 -76.22 -1.66 -75.7 -2.45L-77.17 -3.59C-77.63 -2.98 -78.16 -2.51 -78.76 -2.18C-79.35 -1.85 -80.05 -1.69 -80.86 -1.69C-81.69 -1.69 -82.42 -1.89 -83.04 -2.3C-83.66 -2.71 -84.13 -3.27 -84.47 -3.98C-84.81 -4.69 -84.99 -5.48 -85.02 -6.36ZM-77.95 -8.48L-77.95 -8.3L-84.94 -8.3C-84.77 -9.59 -84.37 -10.59 -83.72 -11.29C-83.08 -12 -82.27 -12.35 -81.31 -12.35C-80.18 -12.35 -79.36 -11.98 -78.83 -11.24C-78.31 -10.5 -78.01 -9.58 -77.95 -8.48Z M-72.52 0L-70.1 0L-70.1 -19.92L-72.52 -19.92Z M-62.03 -17.48C-61.61 -17.93 -61.01 -18.16 -60.24 -18.16C-59.76 -18.16 -59.33 -18.13 -58.94 -18.06L-58.81 -19.99C-59.38 -20.13 -59.93 -20.2 -60.46 -20.2C-61.91 -20.2 -63.05 -19.79 -63.87 -18.98C-64.68 -18.18 -65.09 -17.02 -65.09 -15.53L-65.09 -14.04L-67.3 -14.04L-67.3 -12.21L-65.09 -12.21L-65.09 0L-62.67 0L-62.67 -12.21L-59.68 -12.21L-59.68 -14.04L-62.67 -14.04L-62.67 -15.53C-62.67 -16.37 -62.45 -17.03 -62.03 -17.48Z M-49.89 0L-47.37 0L-47.37 -18.89L-49.89 -18.89Z M-24.74 -13.06C-25.53 -13.88 -26.7 -14.29 -28.24 -14.29C-29.22 -14.29 -30.08 -14.1 -30.84 -13.7C-31.6 -13.3 -32.22 -12.76 -32.7 -12.06C-33.06 -12.82 -33.58 -13.38 -34.28 -13.74C-34.97 -14.11 -35.78 -14.29 -36.71 -14.29C-37.6 -14.29 -38.39 -14.14 -39.08 -13.83C-39.77 -13.53 -40.36 -13.09 -40.85 -12.52L-40.93 -14.04L-43.22 -14.04L-43.22 0L-40.8 0L-40.8 -10.3C-40.52 -10.92 -40.12 -11.41 -39.59 -11.76C-39.06 -12.11 -38.4 -12.28 -37.59 -12.28C-35.59 -12.28 -34.59 -11.27 -34.59 -9.24L-34.59 0L-32.17 0L-32.17 -9.3C-32.11 -9.86 -31.95 -10.37 -31.68 -10.82C-31.42 -11.27 -31.05 -11.62 -30.59 -11.89C-30.12 -12.15 -29.57 -12.28 -28.95 -12.28C-27.98 -12.28 -27.23 -12.06 -26.73 -11.6C-26.22 -11.15 -25.97 -10.36 -25.97 -9.25L-25.97 0L-23.54 0L-23.54 -9.22C-23.54 -10.96 -23.94 -12.24 -24.74 -13.06Z M-10.56 -13.41C-11.38 -14 -12.37 -14.29 -13.53 -14.29C-15.26 -14.29 -16.61 -13.7 -17.59 -12.5L-17.72 -14.04L-19.92 -14.04L-19.92 5.4L-17.5 5.4L-17.5 -1.35C-16.52 -0.28 -15.19 0.26 -13.49 0.26C-12.36 0.26 -11.38 -0.05 -10.57 -0.66C-9.75 -1.26 -9.13 -2.11 -8.7 -3.18C-8.27 -4.26 -8.06 -5.49 -8.06 -6.86L-8.06 -7.13C-8.06 -8.57 -8.27 -9.83 -8.69 -10.9C-9.11 -11.98 -9.74 -12.81 -10.56 -13.41ZM-10.48 -7.13L-10.48 -6.86C-10.48 -5.89 -10.62 -5.02 -10.89 -4.24C-11.16 -3.46 -11.58 -2.84 -12.14 -2.38C-12.7 -1.92 -13.4 -1.69 -14.23 -1.69C-15.69 -1.69 -16.78 -2.32 -17.5 -3.59L-17.5 -10.35C-17.17 -10.95 -16.74 -11.42 -16.2 -11.77C-15.67 -12.11 -15.02 -12.28 -14.26 -12.28C-13.42 -12.28 -12.71 -12.05 -12.15 -11.6C-11.58 -11.14 -11.16 -10.52 -10.89 -9.75C-10.62 -8.97 -10.48 -8.1 -10.48 -7.13Z M1.31 -14.24C1.08 -14.28 0.88 -14.29 0.73 -14.29C-0.02 -14.29 -0.67 -14.13 -1.22 -13.81C-1.77 -13.48 -2.23 -13.03 -2.59 -12.44L-2.65 -14.04L-5.01 -14.04L-5.01 0L-2.58 0L-2.58 -9.98C-2.31 -10.61 -1.91 -11.11 -1.38 -11.47C-0.85 -11.82 -0.19 -12 0.61 -12C1.02 -12 1.42 -11.96 1.79 -11.89L1.79 -14.11C1.7 -14.16 1.54 -14.2 1.31 -14.24Z M3.7 -10.82C3.18 -9.74 2.92 -8.52 2.92 -7.16L2.92 -6.86C2.92 -5.5 3.18 -4.29 3.7 -3.21C4.23 -2.13 4.97 -1.29 5.93 -0.67C6.9 -0.05 8.03 0.26 9.31 0.26C10.6 0.26 11.73 -0.05 12.69 -0.67C13.66 -1.29 14.4 -2.13 14.92 -3.21C15.44 -4.29 15.7 -5.5 15.7 -6.86L15.7 -7.16C15.7 -8.52 15.44 -9.74 14.92 -10.82C14.4 -11.9 13.65 -12.75 12.69 -13.37C11.72 -13.99 10.58 -14.29 9.29 -14.29C8.01 -14.29 6.89 -13.99 5.92 -13.37C4.96 -12.75 4.22 -11.9 3.7 -10.82ZM5.79 -4.25C5.49 -5.04 5.34 -5.91 5.34 -6.86L5.34 -7.16C5.34 -8.11 5.49 -8.98 5.79 -9.77C6.09 -10.55 6.54 -11.18 7.13 -11.65C7.72 -12.12 8.44 -12.35 9.29 -12.35C10.14 -12.35 10.87 -12.12 11.47 -11.65C12.06 -11.18 12.51 -10.55 12.82 -9.77C13.12 -8.98 13.27 -8.11 13.27 -7.16L13.27 -6.86C13.27 -5.91 13.12 -5.04 12.82 -4.25C12.52 -3.47 12.08 -2.84 11.48 -2.38C10.88 -1.92 10.16 -1.69 9.31 -1.69C8.46 -1.69 7.73 -1.92 7.13 -2.38C6.54 -2.84 6.09 -3.47 5.79 -4.25Z M29.08 -14.04L26.6 -14.04L23.15 -3.28L19.6 -14.04L17.12 -14.04L22.21 0L22.41 0L24.05 0Z M42.7 -6.36L42.7 -7.43C42.7 -8.78 42.49 -9.97 42.08 -11C41.66 -12.03 41.03 -12.84 40.17 -13.42C39.31 -14 38.22 -14.29 36.92 -14.29C35.84 -14.29 34.84 -14 33.9 -13.43C32.96 -12.85 32.21 -12.01 31.64 -10.92C31.07 -9.82 30.78 -8.54 30.78 -7.08L30.78 -6.52C30.78 -5.22 31.05 -4.05 31.58 -3.02C32.11 -1.99 32.87 -1.19 33.84 -0.61C34.82 -0.03 35.95 0.26 37.23 0.26C38.51 0.26 39.58 0.01 40.45 -0.5C41.31 -1.01 42 -1.66 42.52 -2.45L41.05 -3.59C40.59 -2.98 40.06 -2.51 39.47 -2.18C38.87 -1.85 38.17 -1.69 37.36 -1.69C36.53 -1.69 35.8 -1.89 35.19 -2.3C34.57 -2.71 34.09 -3.27 33.75 -3.98C33.41 -4.69 33.23 -5.48 33.21 -6.36ZM40.28 -8.48L40.28 -8.3L33.28 -8.3C33.45 -9.59 33.85 -10.59 34.5 -11.29C35.14 -12 35.95 -12.35 36.92 -12.35C38.04 -12.35 38.86 -11.98 39.39 -11.24C39.91 -10.5 40.21 -9.58 40.28 -8.48Z M63.96 -13.06C63.17 -13.88 62 -14.29 60.46 -14.29C59.48 -14.29 58.62 -14.1 57.86 -13.7C57.1 -13.3 56.48 -12.76 56 -12.06C55.64 -12.82 55.12 -13.38 54.42 -13.74C53.73 -14.11 52.91 -14.29 51.99 -14.29C51.1 -14.29 50.31 -14.14 49.62 -13.83C48.92 -13.53 48.34 -13.09 47.85 -12.52L47.77 -14.04L45.48 -14.04L45.48 0L47.9 0L47.9 -10.3C48.18 -10.92 48.58 -11.41 49.11 -11.76C49.64 -12.11 50.3 -12.28 51.11 -12.28C53.11 -12.28 54.1 -11.27 54.1 -9.24L54.1 0L56.53 0L56.53 -9.3C56.59 -9.86 56.75 -10.37 57.02 -10.82C57.28 -11.27 57.65 -11.62 58.11 -11.89C58.58 -12.15 59.12 -12.28 59.75 -12.28C60.72 -12.28 61.47 -12.06 61.97 -11.6C62.48 -11.15 62.73 -10.36 62.73 -9.25L62.73 0L65.16 0L65.16 -9.22C65.16 -10.96 64.76 -12.24 63.96 -13.06Z M80.09 -6.36L80.09 -7.43C80.09 -8.78 79.88 -9.97 79.46 -11C79.05 -12.03 78.41 -12.84 77.55 -13.42C76.69 -14 75.61 -14.29 74.3 -14.29C73.23 -14.29 72.22 -14 71.28 -13.43C70.35 -12.85 69.59 -12.01 69.02 -10.92C68.45 -9.82 68.17 -8.54 68.17 -7.08L68.17 -6.52C68.17 -5.22 68.43 -4.05 68.96 -3.02C69.49 -1.99 70.25 -1.19 71.23 -0.61C72.2 -0.03 73.33 0.26 74.61 0.26C75.89 0.26 76.96 0.01 77.83 -0.5C78.69 -1.01 79.39 -1.66 79.9 -2.45L78.44 -3.59C77.97 -2.98 77.44 -2.51 76.85 -2.18C76.26 -1.85 75.55 -1.69 74.74 -1.69C73.91 -1.69 73.19 -1.89 72.57 -2.3C71.95 -2.71 71.47 -3.27 71.14 -3.98C70.8 -4.69 70.62 -5.48 70.59 -6.36ZM77.66 -8.48L77.66 -8.3L70.67 -8.3C70.83 -9.59 71.24 -10.59 71.88 -11.29C72.53 -12 73.33 -12.35 74.3 -12.35C75.42 -12.35 76.25 -11.98 76.77 -11.24C77.29 -10.5 77.59 -9.58 77.66 -8.48Z M93.93 -9.2C93.93 -12.6 92.43 -14.29 89.43 -14.29C88.57 -14.29 87.79 -14.12 87.08 -13.78C86.37 -13.43 85.76 -12.94 85.25 -12.31L85.17 -14.04L82.87 -14.04L82.87 0L85.3 0L85.3 -10.04C85.65 -10.72 86.12 -11.27 86.71 -11.67C87.3 -12.08 87.97 -12.28 88.71 -12.28C89.65 -12.28 90.34 -12.04 90.81 -11.56C91.27 -11.07 91.5 -10.3 91.5 -9.22L91.5 0L93.93 0Z M103.5 0L103.49 -1.93C103.36 -1.9 103.18 -1.87 102.97 -1.84C102.75 -1.81 102.55 -1.79 102.37 -1.79C101.9 -1.79 101.52 -1.9 101.24 -2.13C100.97 -2.36 100.83 -2.81 100.83 -3.48L100.83 -12.21L103.45 -12.21L103.45 -14.04L100.83 -14.04L100.83 -17.45L98.4 -17.45L98.4 -14.04L95.85 -14.04L95.85 -12.21L98.4 -12.21L98.4 -3.49C98.4 -2.17 98.7 -1.21 99.29 -0.62C99.88 -0.03 100.67 0.26 101.64 0.26C102.33 0.26 102.95 0.17 103.5 0Z"></path></g><rect id="SvgjsRect5954" width="97.22118076658991" height="1.7710389063956642" fill="#832f71" transform="translate(364.7788192334101, 74.43676523580979) scale(1)" light-content="false"></rect></g></svg>